<?xml version="1.0" encoding="utf-8"?>
<!-- Generator: Adobe Illustrator 17.1.0, SVG Export Plug-In . SVG Version: 6.00 Build 0)  -->
<!DOCTYPE svg PUBLIC "-//W3C//DTD SVG 1.1//EN" "http://www.w3.org/Graphics/SVG/1.1/DTD/svg11.dtd">
<svg version="1.1" id="Layer_1" xmlns="http://www.w3.org/2000/svg" xmlns:xlink="http://www.w3.org/1999/xlink" x="0px" y="0px"
	 viewBox="0 0 60 60" enable-background="new 0 0 60 60" xml:space="preserve">
<path fill-rule="evenodd" clip-rule="evenodd" d="M59.4,36c-0.4,2-1,3.8-1.7,5.6c-0.8,1.8-1.7,3.5-2.8,5.1c-1.1,1.6-2.3,3.1-3.7,4.4
	c-1.4,1.4-2.8,2.6-4.4,3.7c-1.6,1.1-3.3,2-5.1,2.8C39.9,58.4,38,59,36,59.4c-2,0.4-4,0.6-6,0.6c-2.1,0-4.1-0.2-6-0.6
	c-2-0.4-3.8-1-5.6-1.7c-1.8-0.8-3.5-1.7-5.1-2.8c-1.6-1.1-3.1-2.3-4.4-3.7c-1.4-1.4-2.6-2.8-3.7-4.4c-1.1-1.6-2-3.3-2.8-5.1
	C1.6,39.9,1,38,0.6,36c-0.4-2-0.6-4-0.6-6c0-2.1,0.2-4.1,0.6-6c0.4-2,1-3.8,1.7-5.6c0.8-1.8,1.7-3.5,2.8-5.1
	c1.1-1.6,2.3-3.1,3.7-4.4c1.4-1.4,2.8-2.6,4.4-3.7c1.6-1.1,3.3-2,5.1-2.8C20.1,1.6,22,1,24,0.6c2-0.4,4-0.6,6-0.6
	c2.1,0,4.1,0.2,6,0.6c2,0.4,3.8,1,5.6,1.7c1.8,0.8,3.5,1.7,5.1,2.8c1.6,1.1,3.1,2.3,4.4,3.7c1.4,1.4,2.6,2.8,3.7,4.4
	c1.1,1.6,2,3.3,2.8,5.1c0.8,1.8,1.3,3.7,1.7,5.6c0.4,2,0.6,4,0.6,6C60,32.1,59.8,34.1,59.4,36L59.4,36z M7.1,14.6
	c-1,1.5-1.8,3-2.5,4.7c-0.7,1.7-1.2,3.4-1.6,5.2c-0.4,1.8-0.6,3.7-0.6,5.6c0,1.9,0.2,3.8,0.6,5.6c0.4,1.8,0.9,3.5,1.6,5.2
	c0.7,1.7,1.6,3.2,2.5,4.7c1,1.5,2.1,2.8,3.4,4.1c1.2,1.2,2.6,2.4,4.1,3.4c1.5,1,3,1.8,4.7,2.5c1.7,0.7,3.4,1.2,5.2,1.6
	c1.8,0.4,3.7,0.6,5.6,0.6c1.9,0,3.8-0.2,5.6-0.6c1.8-0.4,3.5-0.9,5.2-1.6c1.7-0.7,3.2-1.6,4.7-2.5c1.1-0.8,2.2-1.6,3.2-2.6
	L36.7,38.4c-0.2,0.2-0.4,0.4-0.7,0.6c-0.6,0.4-1.2,0.7-1.8,1c-0.6,0.3-1.3,0.5-2,0.6c-0.7,0.1-1.4,0.2-2.2,0.2
	c-0.7,0-1.5-0.1-2.2-0.2c-0.7-0.1-1.4-0.4-2-0.6c-0.6-0.3-1.3-0.6-1.8-1c-0.6-0.4-1.1-0.8-1.6-1.3c-0.5-0.5-0.9-1-1.3-1.6
	c-0.4-0.6-0.7-1.2-1-1.8c-0.3-0.6-0.5-1.3-0.6-2c-0.1-0.7-0.2-1.4-0.2-2.2c0-0.7,0.1-1.5,0.2-2.2c0.1-0.7,0.4-1.4,0.6-2
	c0.3-0.6,0.6-1.3,1-1.8c0.2-0.2,0.4-0.4,0.6-0.7L9.7,11.4C8.8,12.4,7.9,13.4,7.1,14.6L7.1,14.6z M28.1,25.6c0.3-0.1,0.6-0.2,0.9-0.3
	c0.3-0.1,0.6-0.1,1-0.1c0.3,0,0.7,0,1,0.1c0.3,0.1,0.6,0.2,0.9,0.3c0.3,0.1,0.6,0.3,0.8,0.4c0.3,0.2,0.5,0.4,0.7,0.6
	c0.2,0.2,0.4,0.5,0.6,0.7c0.2,0.3,0.3,0.5,0.4,0.8c0.1,0.3,0.2,0.6,0.3,0.9c0.1,0.3,0.1,0.6,0.1,1c0,0.3,0,0.7-0.1,1
	c-0.1,0.3-0.2,0.6-0.3,0.9c-0.1,0.2-0.2,0.4-0.3,0.6l4.3,4.3c0.2-0.2,0.4-0.4,0.6-0.7c0.4-0.6,0.7-1.2,1-1.8c0.3-0.6,0.5-1.3,0.6-2
	c0.1-0.7,0.2-1.4,0.2-2.2c0-0.7-0.1-1.5-0.2-2.2c-0.1-0.7-0.4-1.4-0.6-2c-0.3-0.6-0.6-1.3-1-1.8c-0.4-0.6-0.8-1.1-1.3-1.6
	c-0.5-0.5-1-0.9-1.6-1.3c-0.6-0.4-1.2-0.7-1.8-1c-0.6-0.3-1.3-0.5-2-0.6c-0.7-0.1-1.4-0.2-2.2-0.2c-0.7,0-1.5,0.1-2.2,0.2
	c-0.7,0.1-1.4,0.4-2,0.6c-0.6,0.3-1.3,0.6-1.8,1c-0.2,0.2-0.4,0.4-0.7,0.6l4.3,4.3C27.8,25.8,27.9,25.7,28.1,25.6L28.1,25.6z
	 M27.6,30c0,0.2,0,0.3,0,0.5c0,0.2,0.1,0.3,0.1,0.5c0.1,0.1,0.1,0.3,0.2,0.4c0.1,0.1,0.2,0.2,0.3,0.4c0.1,0.1,0.2,0.2,0.4,0.3
	c0.1,0.1,0.3,0.2,0.4,0.2c0.1,0.1,0.3,0.1,0.4,0.1c0.2,0,0.3,0,0.5,0c0.2,0,0.3,0,0.5,0c0.2,0,0.3-0.1,0.4-0.1
	c0.1-0.1,0.3-0.1,0.4-0.2c0.1-0.1,0.2-0.2,0.4-0.3c0.1-0.1,0.2-0.2,0.3-0.4c0.1-0.1,0.2-0.3,0.2-0.4c0.1-0.1,0.1-0.3,0.1-0.5
	c0-0.2,0-0.3,0-0.5c0-0.2,0-0.3,0-0.5c0-0.2-0.1-0.3-0.1-0.5c-0.1-0.1-0.1-0.3-0.2-0.4c-0.1-0.1-0.2-0.2-0.3-0.4
	c-0.1-0.1-0.2-0.2-0.4-0.3c-0.1-0.1-0.3-0.2-0.4-0.2c-0.1-0.1-0.3-0.1-0.4-0.1c-0.2,0-0.3,0-0.5,0c-0.2,0-0.3,0-0.5,0
	c-0.2,0-0.3,0.1-0.4,0.1c-0.1,0.1-0.3,0.1-0.4,0.2c-0.1,0.1-0.2,0.2-0.4,0.3c-0.1,0.1-0.2,0.2-0.3,0.4c-0.1,0.1-0.2,0.3-0.2,0.4
	c-0.1,0.1-0.1,0.3-0.1,0.5C27.6,29.7,27.6,29.8,27.6,30L27.6,30z M57,24.4c-0.4-1.8-0.9-3.5-1.6-5.2c-0.7-1.7-1.6-3.2-2.5-4.7
	c-1-1.5-2.1-2.8-3.4-4.1c-1.2-1.2-2.6-2.4-4.1-3.4c-1.5-1-3-1.8-4.7-2.5c-1.7-0.7-3.4-1.2-5.2-1.6c-1.8-0.4-3.7-0.6-5.6-0.6
	c-1.9,0-3.8,0.2-5.6,0.6c-1.8,0.4-3.5,0.9-5.2,1.6c-1.7,0.7-3.2,1.6-4.7,2.5c-1.1,0.8-2.2,1.6-3.2,2.6l10.2,10.2
	c0.3-0.3,0.7-0.6,1.1-0.8c0.7-0.5,1.5-0.9,2.2-1.2c0.8-0.3,1.6-0.6,2.5-0.8c0.9-0.2,1.8-0.3,2.7-0.3c0.9,0,1.8,0.1,2.7,0.3
	c0.9,0.2,1.7,0.4,2.5,0.8c0.8,0.3,1.5,0.7,2.2,1.2c0.7,0.5,1.4,1,2,1.6c0.6,0.6,1.1,1.3,1.6,2c0.5,0.7,0.9,1.5,1.2,2.2
	c0.3,0.8,0.6,1.6,0.8,2.5c0.2,0.9,0.3,1.8,0.3,2.7c0,0.9-0.1,1.8-0.3,2.7c-0.2,0.9-0.4,1.7-0.8,2.5c-0.3,0.8-0.7,1.5-1.2,2.2
	c-0.2,0.4-0.5,0.7-0.8,1.1l10.2,10.2c0.9-1,1.8-2.1,2.6-3.2c1-1.5,1.8-3,2.5-4.7c0.7-1.7,1.2-3.4,1.6-5.2c0.4-1.8,0.6-3.7,0.6-5.6
	C57.6,28.1,57.4,26.2,57,24.4L57,24.4z M22.6,40.9c0.7,0.5,1.5,0.9,2.2,1.2c0.8,0.3,1.6,0.6,2.5,0.8c0.9,0.2,1.8,0.3,2.7,0.3
	c0.7,0,1.2,0.5,1.2,1.2c0,0.7-0.5,1.2-1.2,1.2c-1.1,0-2.1-0.1-3.1-0.3c-1-0.2-2-0.5-2.9-0.9c-0.9-0.4-1.8-0.9-2.6-1.4
	c-0.8-0.6-1.6-1.2-2.3-1.9c-0.7-0.7-1.3-1.5-1.9-2.3c-0.6-0.8-1-1.7-1.4-2.6c-0.4-0.9-0.7-1.9-0.9-2.9c-0.2-1-0.3-2.1-0.3-3.1
	c0-0.7,0.5-1.2,1.2-1.2c0.7,0,1.2,0.5,1.2,1.2c0,0.9,0.1,1.8,0.3,2.7c0.2,0.9,0.4,1.7,0.8,2.5c0.3,0.8,0.7,1.5,1.2,2.2
	c0.5,0.7,1,1.4,1.6,2C21.3,39.9,21.9,40.5,22.6,40.9L22.6,40.9z M17.3,42.7c0.8,0.8,1.7,1.6,2.7,2.2c1,0.6,2,1.2,3.1,1.7
	c1.1,0.5,2.2,0.8,3.4,1c1.2,0.2,2.4,0.4,3.6,0.4c0.7,0,1.2,0.5,1.2,1.2c0,0.7-0.5,1.2-1.2,1.2v0c-1.4,0-2.8-0.1-4.1-0.4
	c-1.3-0.3-2.6-0.7-3.8-1.2c-1.2-0.5-2.4-1.1-3.5-1.9c-1.1-0.7-2.1-1.6-3-2.5c-0.9-0.9-1.8-1.9-2.5-3c-0.7-1.1-1.4-2.2-1.9-3.5
	c-0.5-1.2-0.9-2.5-1.2-3.8c-0.3-1.3-0.4-2.7-0.4-4.1c0-0.7,0.5-1.2,1.2-1.2c0.7,0,1.2,0.5,1.2,1.2c0,1.2,0.1,2.5,0.4,3.6
	c0.2,1.2,0.6,2.3,1,3.4c0.5,1.1,1,2.1,1.7,3.1C15.7,41,16.5,41.9,17.3,42.7L17.3,42.7z M13.9,46.1c1,1,2.2,2,3.4,2.8
	c1.2,0.8,2.5,1.5,3.9,2.1c1.4,0.6,2.8,1,4.3,1.3c1.5,0.3,3,0.5,4.6,0.5c0.7,0,1.2,0.5,1.2,1.2c0,0.7-0.5,1.2-1.2,1.2
	c-1.7,0-3.4-0.2-5.1-0.5c-1.6-0.3-3.2-0.8-4.7-1.5c-1.5-0.6-2.9-1.4-4.3-2.3c-1.3-0.9-2.6-1.9-3.7-3.1c-1.1-1.1-2.2-2.4-3.1-3.7
	c-0.9-1.3-1.7-2.8-2.3-4.3c-0.6-1.5-1.1-3.1-1.5-4.7C5,33.4,4.8,31.7,4.8,30c0-0.7,0.5-1.2,1.2-1.2c0.7,0,1.2,0.5,1.2,1.2
	c0,1.6,0.2,3.1,0.5,4.6C8,36.1,8.4,37.5,9,38.9c0.6,1.4,1.3,2.7,2.1,3.9C11.9,44,12.8,45.1,13.9,46.1L13.9,46.1z"/>
</svg>
