<svg xmlns="http://www.w3.org/2000/svg" viewBox="0 0 68.64 105.79"><title>easy</title><path d="M68,57.72l-0.08-.38c-1.76-7.19-4.55-8.71-10-9C57.5,48,57,47.39,56.67,47.07a10.62,10.62,0,0,0-1-1.06,11.47,11.47,0,0,0-8-3.19,12.12,12.12,0,0,0-4.26.78c-1-1-2.48-2.38-4.5-2.38H38.63a14.87,14.87,0,0,0-2,.24c-0.11-3.65-.1-7.68-0.1-10.33,0-1.53,0-2.62,0-3-0.25-4.94-2.85-8.22-6.77-8.54-0.42,0-.9,0-1.37,0-0.67,0-1.29,0-1.59,0a6.76,6.76,0,0,0-6.1,3.95,13.79,13.79,0,0,0-1,6.65c0,6.35,0,20.5,0,27a29.75,29.75,0,0,0-8.84-1.46,12.76,12.76,0,0,0-7,1.68A9.08,9.08,0,0,0,0,65.14c0.38,7,7.82,9.61,9.17,10,8.71,3.53,11.85,10.45,12,12.57l0,0.67,5.19,17.39H60.08l2.91-18,0-.53a40.74,40.74,0,0,1,2.3-7.51l0.06-.14a29.78,29.78,0,0,0,2.14-5.24C69.39,68.23,68.47,60.73,68,57.72ZM63.69,73.17a25.85,25.85,0,0,1-1.88,4.61L61.71,78l-0.08.2A42.78,42.78,0,0,0,59,86.88l0,0.48-2.33,14.44H29.38l-4.19-14V87.44C24.92,84,21,75.65,10.68,71.46l-0.17-.07-0.17-.05c-0.63-.19-6.11-2-6.35-6.41a5.08,5.08,0,0,1,2.15-4.24,9.23,9.23,0,0,1,4.76-1A25.75,25.75,0,0,1,18.55,61l5.21,1.65V57.15c0-6.46,0-20.61,0-27V30a10.22,10.22,0,0,1,.59-4.72A2.77,2.77,0,0,1,27,23.58c0.29,0,.81,0,1.38,0,0.35,0,.72,0,1,0,2.6,0.21,3,3.4,3.12,4.76,0,0.31,0,1.8,0,2.78,0,2.68,0,6.72.1,10.46l0.14,4.68,3-.85a13.76,13.76,0,0,1,1.67-.13,4.85,4.85,0,0,1,1.57.34,6.7,6.7,0,0,1,1.44.78l1.82,1.85,2.43-.92a8.06,8.06,0,0,1,2.85-.53,7.53,7.53,0,0,1,5.19,2L52.95,49l0.16,0.13c0.08,0.07.36,0.38,0.6,0.65,0.46,0.5,1,1.08,1.44,1.5l1.05,1,1.43,0.08c3.77,0.21,5,.54,6.36,5.9l0,0.22C64.49,61.17,65.31,67.91,63.69,73.17Z"/><path d="M14.76,31.38a1.73,1.73,0,0,1-.91,2.26l-8.18,3a1.73,1.73,0,0,1-2.16-1.12h0a1.72,1.72,0,0,1,.91-2.26l8.18-3a1.73,1.73,0,0,1,2.16,1.12h0Z"/><path d="M13.44,20.26a1.73,1.73,0,0,1-2.22,1l-8-3.48a1.73,1.73,0,0,1-.78-2.3h0a1.72,1.72,0,0,1,2.22-1l8,3.48a1.72,1.72,0,0,1,.78,2.3h0Z"/><path d="M21.44,11.68a1.73,1.73,0,0,1-2.15-1.13L17.1,2.1a1.73,1.73,0,0,1,1.33-2h0A1.73,1.73,0,0,1,20.59,1.2l2.19,8.45a1.72,1.72,0,0,1-1.33,2h0Z"/><path d="M40.33,31.38a1.73,1.73,0,0,0,.91,2.26l8.18,3a1.73,1.73,0,0,0,2.16-1.12h0a1.72,1.72,0,0,0-.91-2.26l-8.18-3a1.73,1.73,0,0,0-2.16,1.12h0Z"/><path d="M41.65,20.26a1.73,1.73,0,0,0,2.22,1l8-3.48a1.73,1.73,0,0,0,.78-2.3h0a1.72,1.72,0,0,0-2.22-1l-8,3.48a1.73,1.73,0,0,0-.78,2.3h0Z"/><path d="M33.65,11.68a1.73,1.73,0,0,0,2.15-1.13L38,2.1a1.73,1.73,0,0,0-1.33-2h0A1.72,1.72,0,0,0,34.51,1.2L32.32,9.65a1.72,1.72,0,0,0,1.33,2h0Z"/></svg>