<?xml version="1.0" encoding="utf-8"?>
<!-- Generator: Adobe Illustrator 17.1.0, SVG Export Plug-In . SVG Version: 6.00 Build 0)  -->
<!DOCTYPE svg PUBLIC "-//W3C//DTD SVG 1.1//EN" "http://www.w3.org/Graphics/SVG/1.1/DTD/svg11.dtd">
<svg version="1.1" id="Layer_1" xmlns="http://www.w3.org/2000/svg" xmlns:xlink="http://www.w3.org/1999/xlink" x="0px" y="0px"
	 viewBox="0 0 66.1 60" enable-background="new 0 0 66.1 60" xml:space="preserve">
<path fill-rule="evenodd" clip-rule="evenodd" d="M65.5,36c-0.4,2-1,3.8-1.7,5.6c-0.8,1.8-1.7,3.5-2.8,5.1c-1.1,1.6-2.3,3.1-3.7,4.4
	c-1.4,1.4-2.8,2.6-4.4,3.7c-1.6,1.1-3.3,2-5.1,2.8c-1.8,0.8-3.7,1.3-5.6,1.7c-1.9,0.4-4,0.6-6,0.6c-2.1,0-4.1-0.2-6-0.6
	c-2-0.4-3.8-1-5.6-1.7c-1.8-0.8-3.5-1.7-5.1-2.8c-1.6-1.1-3.1-2.3-4.4-3.7c-1.4-1.4-2.6-2.8-3.7-4.4c-1.1-1.6-2-3.3-2.8-5.1
	C7.7,39.9,7.1,38,6.7,36c-0.3-1.6-0.5-3.2-0.6-4.8H6.1v-2.4h0.1c0.1-1.7,0.2-3.3,0.6-4.8c0.4-2,1-3.8,1.8-5.6
	c0.5-1.3,1.2-2.5,1.9-3.7L1.1,6.6c-1.5-1.5-1.5-3.9,0-5.4c1.5-1.5,3.9-1.5,5.4,0l7.5,8.5c0.3-0.3,0.5-0.6,0.8-0.9
	c1.4-1.4,2.8-2.6,4.4-3.7c1.6-1.1,3.3-2,5.1-2.8c1.8-0.8,3.7-1.3,5.6-1.7c2-0.4,4-0.6,6-0.6c2.1,0,4.1,0.2,6,0.6
	c2,0.4,3.8,1,5.6,1.7c1.8,0.8,3.5,1.7,5.1,2.8c1.6,1.1,3.1,2.3,4.4,3.7c1.4,1.4,2.6,2.8,3.7,4.4c1.1,1.6,2,3.3,2.8,5.1
	c0.8,1.8,1.3,3.7,1.7,5.6c0.4,2,0.6,4,0.6,6C66.1,32.1,65.9,34.1,65.5,36L65.5,36z M12.2,16.2c-0.6,1-1.1,2-1.5,3
	c-0.7,1.7-1.2,3.4-1.6,5.2c-0.3,1.4-0.4,2.9-0.5,4.4h5.9c-0.7-1.4-1.2-3.1-1.2-4.8c0-2,0.6-3.9,1.5-5.5L12.2,16.2L12.2,16.2z
	 M63.2,24.4c-0.4-1.8-0.9-3.5-1.6-5.2C60.9,17.6,60,16,59,14.6c-1-1.5-2.1-2.8-3.4-4.1c-1.2-1.2-2.6-2.4-4.1-3.4
	c-1.5-1-3-1.8-4.7-2.5c-1.7-0.7-3.4-1.2-5.2-1.6c-1.8-0.4-3.7-0.6-5.6-0.6c-1.9,0-3.8,0.2-5.6,0.6c-1.8,0.4-3.5,0.9-5.2,1.6
	c-1.7,0.7-3.2,1.6-4.7,2.5c-1.5,1-2.8,2.1-4.1,3.4c-0.3,0.3-0.6,0.7-0.9,1l2.9,3.3c1.6-1,3.5-1.5,5.5-1.5c4.3,0,8.1,2.6,9.8,6.2
	c0,0,0,0,0.1,0c0.7-0.1,1.4-0.2,2.2-0.2c0.7,0,1.5,0.1,2.2,0.2c0.7,0.1,1.4,0.4,2,0.6c0.6,0.3,1.3,0.6,1.8,1
	c0.6,0.4,1.1,0.8,1.6,1.3c0.5,0.5,0.9,1,1.3,1.6c0.4,0.6,0.7,1.2,1,1.8c0.3,0.6,0.5,1.3,0.6,2c0.1,0.7,0.2,1.4,0.2,2.2
	s-0.1,1.5-0.2,2.2c-0.1,0.7-0.4,1.4-0.6,2c-0.3,0.6-0.6,1.3-1,1.8c-0.4,0.6-0.8,1.1-1.3,1.6c-0.5,0.5-1,0.9-1.6,1.3
	c-0.6,0.4-1.2,0.7-1.8,1c-0.6,0.3-1.3,0.5-2,0.6c-0.7,0.1-1.4,0.2-2.2,0.2c-0.7,0-1.5-0.1-2.2-0.2c-0.7-0.1-1.4-0.4-2-0.6
	c-0.6-0.3-1.3-0.6-1.8-1c-0.6-0.4-1.1-0.8-1.6-1.3c-0.5-0.5-0.9-1-1.3-1.6c-0.4-0.6-0.7-1.2-1-1.8c-0.3-0.6-0.5-1.3-0.6-2
	c-0.1-0.3-0.1-0.6-0.1-1H23c0,0.5,0.1,1,0.2,1.5c0.2,0.9,0.4,1.7,0.8,2.5c0.3,0.8,0.7,1.5,1.2,2.2c0.5,0.7,1,1.4,1.6,2
	c0.6,0.6,1.2,1.1,2,1.6c0.7,0.5,1.5,0.9,2.2,1.2c0.8,0.3,1.6,0.6,2.5,0.8c0.9,0.2,1.8,0.3,2.7,0.3c0.7,0,1.2,0.5,1.2,1.2
	c0,0.7-0.5,1.2-1.2,1.2c-1.1,0-2.1-0.1-3.1-0.3c-1-0.2-2-0.5-2.9-0.9c-0.9-0.4-1.8-0.9-2.7-1.4c-0.8-0.6-1.6-1.2-2.3-1.9
	c-0.7-0.7-1.3-1.5-1.9-2.3c-0.6-0.8-1-1.7-1.4-2.6c-0.4-0.9-0.7-1.9-0.9-2.9c-0.1-0.6-0.2-1.3-0.3-1.9h-2.4c0,0.8,0.1,1.6,0.3,2.4
	c0.2,1.2,0.6,2.3,1,3.4c0.5,1.1,1,2.1,1.7,3.1c0.6,1,1.4,1.9,2.2,2.7c0.8,0.8,1.7,1.6,2.7,2.2c1,0.6,2,1.2,3.1,1.7
	c1.1,0.5,2.2,0.8,3.4,1c1.2,0.2,2.4,0.4,3.6,0.4c0.7,0,1.2,0.5,1.2,1.2c0,0.7-0.5,1.2-1.2,1.2c-1.4,0-2.8-0.1-4.1-0.4
	c-1.3-0.3-2.6-0.7-3.8-1.2c-1.2-0.5-2.4-1.1-3.5-1.9c-1.1-0.7-2.1-1.6-3-2.5c-0.9-0.9-1.8-1.9-2.5-3c-0.7-1.1-1.4-2.2-1.9-3.5
	c-0.5-1.2-0.9-2.5-1.2-3.8c-0.2-0.9-0.3-1.9-0.3-2.9h-2.4c0.1,1.2,0.2,2.3,0.4,3.4c0.3,1.5,0.8,2.9,1.3,4.3c0.6,1.4,1.3,2.7,2.1,3.9
	C18,44,19,45.1,20,46.1c1,1,2.2,2,3.4,2.8c1.2,0.8,2.5,1.5,3.9,2.1c1.4,0.6,2.8,1,4.3,1.3c1.5,0.3,3,0.5,4.6,0.5
	c0.7,0,1.2,0.5,1.2,1.2c0,0.7-0.5,1.2-1.2,1.2c-1.7,0-3.4-0.2-5.1-0.5c-1.6-0.3-3.2-0.8-4.7-1.5c-1.5-0.6-2.9-1.4-4.3-2.3
	c-1.3-0.9-2.6-1.9-3.7-3.1c-1.1-1.1-2.2-2.4-3.1-3.7c-0.9-1.3-1.7-2.8-2.3-4.3c-0.6-1.5-1.1-3.1-1.5-4.7c-0.3-1.3-0.4-2.6-0.5-3.9
	H8.6c0.1,1.5,0.2,2.9,0.5,4.4c0.4,1.8,0.9,3.5,1.6,5.2c0.7,1.7,1.6,3.2,2.5,4.7c1,1.5,2.1,2.8,3.4,4.1c1.2,1.2,2.6,2.4,4.1,3.4
	c1.5,1,3,1.8,4.7,2.5c1.6,0.7,3.4,1.2,5.2,1.6c1.8,0.4,3.7,0.6,5.6,0.6c1.9,0,3.8-0.2,5.6-0.6c1.8-0.4,3.5-0.9,5.2-1.6
	c1.7-0.7,3.2-1.6,4.7-2.5c1.5-1,2.8-2.1,4.1-3.4c1.2-1.3,2.4-2.6,3.4-4.1c1-1.5,1.8-3,2.5-4.7c0.7-1.7,1.2-3.4,1.6-5.2
	c0.4-1.8,0.6-3.7,0.6-5.6C63.7,28.1,63.5,26.2,63.2,24.4L63.2,24.4z M15.7,24c0,1.8,0.6,3.4,1.5,4.8H31c1-1.4,1.5-3,1.5-4.8
	c0-4.6-3.8-8.4-8.4-8.4C19.5,15.6,15.7,19.4,15.7,24L15.7,24z M33.7,30c0,0.2,0,0.3,0.1,0.5c0,0.2,0.1,0.3,0.1,0.4
	c0.1,0.1,0.1,0.3,0.2,0.4c0.1,0.1,0.2,0.2,0.3,0.4c0.1,0.1,0.2,0.2,0.4,0.3c0.1,0.1,0.3,0.2,0.4,0.2c0.1,0.1,0.3,0.1,0.4,0.1
	c0.2,0,0.3,0,0.5,0c0.2,0,0.3,0,0.5,0c0.2,0,0.3-0.1,0.5-0.1c0.1-0.1,0.3-0.1,0.4-0.2c0.1-0.1,0.2-0.2,0.4-0.3
	c0.1-0.1,0.2-0.2,0.3-0.4c0.1-0.1,0.2-0.3,0.2-0.4c0.1-0.1,0.1-0.3,0.1-0.4c0-0.2,0-0.3,0-0.5c0-0.2,0-0.3,0-0.5
	c0-0.2-0.1-0.3-0.1-0.4c-0.1-0.1-0.1-0.3-0.2-0.4c-0.1-0.1-0.2-0.2-0.3-0.4c-0.1-0.1-0.2-0.2-0.4-0.3c-0.1-0.1-0.3-0.2-0.4-0.2
	c-0.1-0.1-0.3-0.1-0.5-0.1c-0.2,0-0.3,0-0.5,0c-0.2,0-0.3,0-0.5,0c-0.2,0-0.3,0.1-0.4,0.1c-0.1,0.1-0.3,0.1-0.4,0.2
	c-0.1,0.1-0.2,0.2-0.4,0.3c-0.1,0.1-0.2,0.2-0.3,0.4c-0.1,0.1-0.2,0.3-0.2,0.4c-0.1,0.1-0.1,0.3-0.1,0.4
	C33.7,29.7,33.7,29.8,33.7,30L33.7,30z M26.5,24c0,1.3-1.1,2.4-2.4,2.4c-1.3,0-2.4-1.1-2.4-2.4c0-1.3,1.1-2.4,2.4-2.4
	C25.5,21.6,26.5,22.7,26.5,24L26.5,24z M60.1,31.2c-0.7,0-1.2-0.5-1.2-1.2c0-1.6-0.2-3.1-0.5-4.6c-0.3-1.5-0.8-2.9-1.3-4.3
	c-0.6-1.4-1.3-2.7-2.1-3.9c-0.8-1.2-1.8-2.3-2.8-3.4c-1-1-2.2-2-3.4-2.8C47.7,10.3,46.4,9.6,45,9c-1.4-0.6-2.8-1-4.3-1.3
	c-1.5-0.3-3-0.5-4.6-0.5c-0.7,0-1.2-0.5-1.2-1.2c0-0.7,0.5-1.2,1.2-1.2c1.7,0,3.4,0.2,5.1,0.5c1.6,0.3,3.2,0.8,4.7,1.5
	c1.5,0.6,2.9,1.4,4.3,2.3c1.3,0.9,2.6,1.9,3.7,3.1c1.1,1.1,2.2,2.4,3.1,3.7c0.9,1.3,1.7,2.8,2.3,4.3c0.6,1.5,1.1,3.1,1.5,4.7
	c0.3,1.6,0.5,3.3,0.5,5.1h0C61.3,30.7,60.8,31.2,60.1,31.2L60.1,31.2z M36.1,9.6c1.4,0,2.8,0.1,4.1,0.4c1.3,0.3,2.6,0.7,3.8,1.2
	c1.2,0.5,2.4,1.1,3.5,1.9c1.1,0.7,2.1,1.6,3,2.5c0.9,0.9,1.8,1.9,2.5,3c0.7,1.1,1.4,2.2,1.9,3.5c0.5,1.2,0.9,2.5,1.2,3.8
	c0.3,1.3,0.4,2.7,0.4,4.1c0,0,0,0,0,0c0,0.7-0.5,1.2-1.2,1.2c-0.7,0-1.2-0.5-1.2-1.2c0-1.2-0.1-2.5-0.4-3.6c-0.2-1.2-0.6-2.3-1-3.4
	c-0.5-1.1-1-2.1-1.7-3.1c-0.6-1-1.4-1.8-2.2-2.7c-0.8-0.8-1.7-1.6-2.7-2.2c-1-0.6-2-1.2-3.1-1.7c-1.1-0.5-2.2-0.8-3.4-1
	c-1.2-0.2-2.4-0.4-3.6-0.4v0c-0.7,0-1.2-0.5-1.2-1.2C34.9,10.1,35.5,9.6,36.1,9.6L36.1,9.6z M36.1,14.4c1.1,0,2.1,0.1,3.1,0.3
	c1,0.2,2,0.5,2.9,0.9c0.9,0.4,1.8,0.9,2.7,1.4c0.8,0.6,1.6,1.2,2.3,1.9c0.7,0.7,1.3,1.5,1.9,2.3c0.6,0.8,1,1.7,1.4,2.6
	c0.4,0.9,0.7,1.9,0.9,2.9c0.2,1,0.3,2.1,0.3,3.1c0,0.7-0.5,1.2-1.2,1.2c-0.7,0-1.2-0.5-1.2-1.2c0-0.9-0.1-1.8-0.3-2.7
	c-0.2-0.9-0.4-1.7-0.8-2.5c-0.3-0.8-0.7-1.5-1.2-2.2c-0.5-0.7-1-1.4-1.6-2c-0.6-0.6-1.3-1.1-2-1.6c-0.7-0.5-1.5-0.9-2.2-1.2
	c-0.8-0.3-1.6-0.6-2.5-0.8c-0.9-0.2-1.7-0.3-2.7-0.3c-0.7,0-1.2-0.5-1.2-1.2C34.9,14.9,35.5,14.4,36.1,14.4L36.1,14.4z"/>
</svg>
