<svg xmlns="http://www.w3.org/2000/svg" xmlns:xlink="http://www.w3.org/1999/xlink" viewBox="0 0 469.52 366.16"><defs><style>.a,.c{fill:none;}.b{clip-path:url(#a);}.c{stroke:#000;stroke-linecap:round;stroke-miterlimit:10;stroke-width:18px;}</style><clipPath id="a" transform="translate(1.5 1.5)"><rect class="a" x="-22.74" y="-74.42" width="512" height="512"/></clipPath></defs><title>extract_audio</title><g class="b"><rect class="c" x="9" y="9" width="451.52" height="307.2" rx="6" ry="6"/></g><g class="b"><line class="c" x1="378.12" y1="357.16" x2="91.4" y2="357.16"/></g><g class="b"><path d="M315.37,129.85c-36.71,0-40.69-19.95-67.15-19.95-4.14,0-4.72,3.5-4.72,10.6v102c0,13.84-2.52,41-41,41s-41-18.42-41-30.72c0-18.26,11.74-30.72,41-30.72C223,202.06,223,193,223,181.58V68.78c0-5.44,1.76-9.79,10-9.79,34.38,0,45.52,20.41,82.16,20.41,6.56,0,10.1,1.85,10.1,9.75v31.34C325.28,130.22,315.37,129.85,315.37,129.85Z" transform="translate(1.5 1.5)"/></g></svg>