<svg xmlns="http://www.w3.org/2000/svg" viewBox="0 0 67.92 87.29"><title>ringtone</title><path d="M62,8.33a4.27,4.27,0,0,0-2.76-1.77L22.64,0.07a4.28,4.28,0,0,0-5,3.47L4.84,75.76a4.29,4.29,0,0,0,3.47,5l36.57,6.5a4.28,4.28,0,0,0,5-3.47L62.68,11.53A4.25,4.25,0,0,0,62,8.33ZM21.89,3l0.23,0,36.57,6.5a1.29,1.29,0,0,1,1,1.49l-0.47,2.64L20.16,6.7l0.47-2.64A1.28,1.28,0,0,1,21.89,3ZM49.1,70.78L10,63.84,19.63,9.65l39.1,6.95ZM45.4,84.27L8.83,77.77a1.29,1.29,0,0,1-1-1.49l1.69-9.49,39.1,6.95-1.69,9.49A1.28,1.28,0,0,1,45.4,84.27Z"/><path d="M28.74,71.88a3.82,3.82,0,1,0,2.46,1.57A3.82,3.82,0,0,0,28.74,71.88Zm-0.81,4.57a0.82,0.82,0,0,1,.14-1.63h0.15A0.82,0.82,0,0,1,27.93,76.45Z"/><path d="M47.21,52.28l-1.53-2.76c-1.23-2.22-3-5.89-3.18-7.12-0.17-1.46.88-6,1.58-8.56l0-.14a8.45,8.45,0,0,0-5.4-9.42l0.57-3.23a1.5,1.5,0,1,0-3-.53l-0.57,3.23a8.45,8.45,0,0,0-8.31,7l0,0.14c-0.21,2.62-.8,7.27-1.47,8.58-0.56,1.1-3.51,3.93-5.43,5.59l-2.39,2.06L31.2,49.43l-1,5.38a1.5,1.5,0,0,0,1.22,1.74l0.26,0a1.5,1.5,0,0,0,1.47-1.24l1-5.38ZM28.64,40.82c1.11-2.18,1.66-8.23,1.78-9.62a5.46,5.46,0,0,1,10.76,1.91c-0.37,1.35-1.94,7.22-1.65,9.65a21.77,21.77,0,0,0,2.1,5.48l-16.83-3A21.75,21.75,0,0,0,28.64,40.82Z"/><path d="M5.63,35.08A1.5,1.5,0,0,0,6.14,33C4.51,30.31,3.08,27.29,3,26.41a15,15,0,0,1,2.35-2.14c1.71-1.38,3.19-2.57,3.43-3.93s-0.74-3-1.87-4.87a15,15,0,0,1-1.47-2.81c0.39-.8,2.77-3.14,5.24-5.12A1.5,1.5,0,1,0,8.79,5.2c-2.22,1.79-6,5.06-6.33,7-0.24,1.36.74,3,1.87,4.87a15.49,15.49,0,0,1,1.46,2.8,15.52,15.52,0,0,1-2.34,2.12C1.75,23.31.27,24.5,0,25.86c-0.34,1.89,2.08,6.26,3.54,8.7A1.5,1.5,0,0,0,5.63,35.08Z"/><path d="M64.35,50.44A1.5,1.5,0,0,0,61.78,52c1.63,2.71,3.06,5.73,3.15,6.61a15,15,0,0,1-2.35,2.14c-1.71,1.38-3.19,2.57-3.43,3.93s0.74,3,1.87,4.87a15,15,0,0,1,1.47,2.82c-0.38.8-2.77,3.14-5.23,5.12a1.5,1.5,0,0,0,1.88,2.34c2.22-1.79,6-5.06,6.32-6.95,0.24-1.36-.74-3-1.87-4.87a15.46,15.46,0,0,1-1.46-2.8,15.46,15.46,0,0,1,2.33-2.12c1.71-1.38,3.19-2.57,3.43-3.93C68.23,57.25,65.82,52.88,64.35,50.44Z"/></svg>